# xmcd
#
# Track frame offsets:
# 150
# 18356
# 32197
# 44764
# 58866
# 72300
# 91845
# 105703
# 117529
# 128868
# 140217
# 157321
# 178628
# 191020
#
# Disc length: 2693 seconds
#
#
# Revision: 2
# Processed by: cddbd v1.5.1PL0 Copyright (c) Steve Scherf et al.
# Submitted via: FreeRIP 2.941 
#
DISCID=d90a830e
DTITLE=Various Artist - Jumpin' The Blues Volume 1
DYEAR=1900
DGENRE=
TTITLE0=Switchin' In The Kitchen
TTITLE1=Solid Gold Cadillac
TTITLE2=Reelin' And Rockin'
TTITLE3=Caldonia
TTITLE4=Why I Don't Know
TTITLE5=Smells Like Bar-B-Q
TTITLE6=Mushmouth
TTITLE7=Safronia B.
TTITLE8=Certainly Ya'll
TTITLE9=Black Cadillac
TTITLE10=Knucklehead
TTITLE11=One Bayou Drive
TTITLE12=Real Lovin' Mama, Real Lovin' Papa
TTITLE13=Let's Rock (One More Time)
EXTD=
EXTT0=Roomful Of Blues\nBPM 170
EXTT1=Mitch Woods and His Rocket 88's\nBPM 185
EXTT2=Johnny Nocturne Band featuring Brenda Boykin\nBPM 165
EXTT3=Hollywood Fats\nBPM 163
EXTT4=Francine Reed featuring Lyle Lovett
EXTT5=Big Joe and The Dynaflows\nBPM 171
EXTT6=Greg Piccolo\nBPM 235
EXTT7=The Love Dogs\nBPM 155
EXTT8=Snooks Eaglin\nBPM 163
EXTT9=Big Joe and The Dynaflows\nBPM 164
EXTT10=Doug Jay\nBPM 205
EXTT11=Roomful Of Blues\nBPM 133
EXTT12=Michelle Willson featuring Sugar Ray Norcia\nBPM 181
EXTT13=Big Joe and The Dynaflows\nBPM 190
PLAYORDER=
